HIERARCHY
ROOT RootJoint
{
    OFFSET   0.000000   0.000000   0.000000
    CHANNELS 6 Xposition Yposition Zposition Xrotation Yrotation Zrotation
    JOINT pelvis_lowerback
    {
        OFFSET   0.000000   0.093605   0.000000
        CHANNELS 3 Xrotation Yrotation Zrotation
        JOINT lowerback_torso
        {
            OFFSET   0.000000   0.100000   0.000000
            CHANNELS 3 Xrotation Yrotation Zrotation
            JOINT torso_head
            {
                OFFSET   0.000000   0.282350   0.000000
                CHANNELS 3 Xrotation Yrotation Zrotation
                End Site
                {
                    OFFSET   0.000000   0.192650   0.000000
                }
            }
            JOINT rTorso_Clavicle
            {
                OFFSET  -0.001000   0.157500   0.000000
                CHANNELS 3 Xrotation Yrotation Zrotation
                JOINT rShoulder
                {
                    OFFSET  -0.117647   0.000000   0.000000
                    CHANNELS 3 Xrotation Yrotation Zrotation
                    JOINT rElbow
                    {
                        OFFSET  -0.245000   0.000000   0.000000
                        CHANNELS 3 Xrotation Yrotation Zrotation
                        JOINT rWrist
                        {
                            OFFSET  -0.240000   0.000000   0.000000
                            CHANNELS 3 Xrotation Yrotation Zrotation
                            End Site
                            {
                                OFFSET  -0.116353  -0.002500   0.000000
                            }
                        }
                    }
                }
            }
            JOINT lTorso_Clavicle
            {
                OFFSET   0.001000   0.157500   0.000000
                CHANNELS 3 Xrotation Yrotation Zrotation
                JOINT lShoulder
                {
                    OFFSET   0.117647   0.000000   0.000000
                    CHANNELS 3 Xrotation Yrotation Zrotation
                    JOINT lElbow
                    {
                        OFFSET   0.245000   0.000000   0.000000
                        CHANNELS 3 Xrotation Yrotation Zrotation
                        JOINT lWrist
                        {
                            OFFSET   0.240000   0.000000   0.000000
                            CHANNELS 3 Xrotation Yrotation Zrotation
                            End Site
                            {
                                OFFSET   0.116353  -0.002500   0.000000
                            }
                        }
                    }
                }
            }
        }
    }
    JOINT rHip
    {
        OFFSET  -0.100000  -0.051395   0.000000
        CHANNELS 3 Xrotation Yrotation Zrotation
        JOINT rKnee
        {
            OFFSET   0.000000  -0.410000   0.000000
            CHANNELS 3 Xrotation Yrotation Zrotation
            JOINT rAnkle
            {
                OFFSET   0.000000  -0.390000   0.000000
                CHANNELS 3 Xrotation Yrotation Zrotation
                JOINT rToeJoint
                {
                    OFFSET   0.000000  -0.050000   0.130000
                    CHANNELS 3 Xrotation Yrotation Zrotation
                    End Site
                    {
                        OFFSET  -0.010000   0.002000   0.060000
                    }
                }
            }
        }
    }
    JOINT lHip
    {
        OFFSET   0.100000  -0.051395   0.000000
        CHANNELS 3 Xrotation Yrotation Zrotation
        JOINT lKnee
        {
            OFFSET   0.000000  -0.410000   0.000000
            CHANNELS 3 Xrotation Yrotation Zrotation
            JOINT lAnkle
            {
                OFFSET   0.000000  -0.390000   0.000000
                CHANNELS 3 Xrotation Yrotation Zrotation
                JOINT lToeJoint
                {
                    OFFSET   0.000000  -0.050000   0.130000
                    CHANNELS 3 Xrotation Yrotation Zrotation
                    End Site
                    {
                        OFFSET   0.010000   0.002000   0.060000
                    }
                }
            }
        }
    }
}
MOTION
Frames: 15
Frame Time:   0.008333
 -2.376719   0.925631   3.975860   0.000000   0.000000   0.000000   0.000000   0.000000   0.000000   0.000000   0.000000   0.000000   0.000000   0.000000   0.000000   0.000000   0.000000   0.000000   0.000000   0.000000   0.000000   0.000000   0.000000   0.000000   0.000000   0.000000   0.000000   0.000000   0.000000   0.000000   0.000000   0.000000   0.000000   0.000000   0.000000   0.000000   0.000000   0.000000   0.000000   0.000000   0.000000   0.000000   0.000000   0.000000   0.000000   0.000000   0.000000   0.000000   0.000000   0.000000   0.000000   0.000000   0.000000   0.000000   0.000000   0.000000   0.000000   0.000000   0.000000   0.000000   0.000000   0.000000   0.000000
 -2.376556   0.926137   3.975673  -0.295087   0.076900  -0.034119   0.292672   0.004309   0.088127   0.258358  -0.179381  -0.006847  -0.148241   0.095667  -0.035054   0.342905  -0.310537   0.178363   1.112609   0.223745   2.086035   0.022575   1.108478  -0.016736   0.425902  -0.410143  -2.350580   0.381135   0.311165  -0.493568   1.542474  -0.021896  -1.878760   0.019596  -0.957134   0.018338   0.462248   0.223399   2.363178  -0.063977  -0.041026  -0.142076   1.213225   0.001870   0.000355  -1.128657  -0.408445  -0.051217  -0.195676  -0.000387   0.000634  -0.065004  -0.084636   0.192789   1.146722  -0.001590  -0.000056  -0.988782   0.159533   0.012623   0.432323  -0.000643   0.000572
 -2.376368   0.926999   3.975543  -0.654151   0.162535  -0.067359   0.603026  -0.002850   0.184820   0.593996  -0.367060  -0.012666  -0.260020   0.185365  -0.061466   0.678253  -0.565885   1.031050   2.200631   0.532757   4.709827   0.052186   2.185752  -0.029629   0.902908  -0.495271  -3.992927   0.761066   0.559935  -1.686247   3.063843  -0.135896  -4.331662   0.045412  -1.882295   0.032506   0.989558   0.196129   4.003710  -0.076731  -0.087196  -0.428176   2.507706   0.005124   0.000549  -2.181405  -0.795723  -0.108724  -0.422118  -0.001058   0.001189  -0.072918  -0.159392   0.524243   2.366440  -0.004442   0.000221  -1.909152   0.312080   0.028278   0.802731  -0.001520   0.001003
 -2.376180   0.927823   3.975494  -0.998474   0.242073  -0.096509   0.895963  -0.015175   0.276794   0.922259  -0.549431  -0.019608  -0.357842   0.268928  -0.082203   0.993569  -0.758891   2.303685   3.253969   0.921100   7.684377   0.081331   3.202515  -0.038422   1.370346  -0.457781  -4.868856   1.119461   0.737622  -3.295308   4.553641  -0.354289  -7.155700   0.070939  -2.757158   0.042488   1.506117   0.060540   4.853141  -0.080623  -0.133839  -0.831809   3.741813   0.008785   0.000390  -3.162951  -1.158215  -0.170207  -0.631746  -0.001757   0.001551  -0.065627  -0.224349   0.967306   3.528796  -0.007732   0.000664  -2.767088   0.456316   0.046297   1.140119  -0.002473   0.001315
 -2.376003   0.928323   3.975547  -1.312132   0.308524  -0.122315   1.166910  -0.029913   0.361065   1.224632  -0.723849  -0.028637  -0.448807   0.346989  -0.099837   1.288740  -0.901481   3.817942   4.271511   1.387684  10.892905   0.106644   4.159148  -0.043981   1.822673  -0.353670  -5.182026   1.453379   0.858209  -5.133330   6.011540  -0.680064 -10.223719   0.093242  -3.583287   0.049218   2.006523  -0.147488   5.127454  -0.086098  -0.179446  -1.327897   4.896269   0.012293  -0.000105  -4.079906  -1.497086  -0.234402  -0.829406  -0.002426   0.001788  -0.052945  -0.281891   1.500189   4.616981  -0.010965   0.001150  -3.568381   0.592340   0.066199   1.443643  -0.003357   0.001507
 -2.375839   0.928291   3.975718  -1.593550   0.358329  -0.145734   1.414668  -0.045992   0.437069   1.497764  -0.889664  -0.039988  -0.533611   0.419930  -0.115625   1.563404  -1.007189   5.453993   5.250954   1.927096  14.255091   0.126771   5.057249  -0.047042   2.258026  -0.208451  -5.118907   1.760960   0.936889  -7.077440   7.434958  -1.109366 -13.449525   0.111113  -4.362029   0.053449   2.488775  -0.406887   5.021816  -0.094241  -0.222824  -1.895146   5.972796   0.015358  -0.000846  -4.936835  -1.813589  -0.300247  -1.015623  -0.003019   0.001936  -0.035673  -0.333908   2.103377   5.633314  -0.013868   0.001607  -4.316938   0.720335   0.087523   1.716773  -0.004101   0.001599
 -2.375689   0.927570   3.976020  -1.844711   0.389677  -0.167463   1.638565  -0.063013   0.504888   1.741685  -1.046961  -0.053927  -0.612080   0.488075  -0.130095   1.817937  -1.088592   7.132502   6.189869   2.531720  17.716717   0.141471   5.898444  -0.048191   2.674804  -0.041026  -4.816515   2.041892   0.987373  -9.048524   8.819175  -1.634732 -16.772341   0.124298  -5.094454   0.055753   2.950878  -0.699296   4.676227  -0.104096  -0.263135  -2.515489   6.976674   0.017845  -0.001732  -5.737672  -2.108973  -0.366864  -1.190157  -0.003506   0.002016  -0.012810  -0.381704   2.759541   6.583142  -0.016302   0.001996  -5.016140   0.840542   0.109852   1.963339  -0.004679   0.001612
 -2.375569   0.925448   3.975937  -1.852888   0.333630  -0.178291   1.697662  -0.048306   0.571196   1.921748  -1.140944  -0.111000  -0.782733   0.402723  -0.187280   2.147501  -1.026852   8.162169   7.245418   3.181804  21.180699   0.152937   6.837803  -0.052514   3.047252   0.136237  -3.484265   2.361817   1.001613 -10.278543  10.012569  -2.216897 -20.033529   0.137082  -5.992698   0.059665   3.363027  -1.095233   3.179863  -0.435449  -0.574350  -3.120733   7.876585   0.018641  -0.005257  -6.048467  -2.536233  -0.276887  -1.176482  -0.002740   0.001515  -0.176612  -0.326674   3.360918   7.085350  -0.015594   0.002074  -5.492942   1.041465   0.041035   2.140404  -0.004528   0.001682
 -2.375466   0.922137   3.975685  -1.831350   0.260814  -0.190341   1.784686  -0.026270   0.631704   2.081525  -1.215086  -0.164114  -0.952952   0.317187  -0.251118   2.436781  -0.922408   8.960408   8.184840   3.868910  24.302660   0.155851   7.729248  -0.054643   3.415957   0.398419  -2.185101   2.644557   0.988720 -11.227008  11.089897  -2.826104 -22.937179   0.140848  -6.842979   0.061253   3.755303  -1.583934   1.766023  -0.798535  -0.879559  -3.688769   8.683011   0.018454  -0.007804  -6.333500  -2.940094  -0.196003  -1.123955  -0.001958   0.000841  -0.379000  -0.276321   3.920023   7.476606  -0.014322   0.001961  -5.941015   1.230360  -0.021285   2.302406  -0.004286   0.001660
 -2.375364   0.917753   3.975372  -1.804357   0.186214  -0.205413   1.891380   0.000523   0.691206   2.239759  -1.276816  -0.207249  -1.109289   0.237104  -0.314075   2.690663  -0.803856   9.593794   9.019815   4.562750  27.128768   0.153026   8.567612  -0.054922   3.767950   0.688553  -1.086665   2.896573   0.964678 -11.980351  12.064317  -3.438691 -25.543176   0.138599  -7.638539   0.060880   4.122898  -2.073150   0.589078  -1.154695  -1.161938  -4.217679   9.420307   0.017711  -0.009417  -6.599846  -3.317552  -0.122712  -1.074300  -0.001361   0.000340  -0.598422  -0.233318   4.438058   7.817668  -0.012938   0.001798  -6.360313   1.406722  -0.078001   2.449317  -0.003979   0.001585
 -2.375212   0.916540   3.975314  -1.892316  -0.042365   0.321795   2.068603   0.083444   0.307128   2.445578  -1.295017  -0.431784  -1.246035   0.163987  -0.390892   2.904780  -0.647648  10.407447   9.747405   5.282291  29.827669   0.148905   9.353550  -0.053695   4.102642   0.952757  -0.183900   3.121655   0.934299 -12.781093  12.943267  -4.044090 -27.937725   0.134052  -8.366377   0.059098   4.464910  -2.437960  -0.303530  -1.399566  -1.399533  -5.189406  10.084710   0.016101  -0.011033  -6.837595  -3.672723  -0.058529  -0.945441  -0.000665  -0.000710  -0.934171  -0.151249   3.897795   8.695247  -0.010345   0.000683  -6.417510   1.519008  -0.471385   1.047814  -0.008048   0.001398
 -2.375683   0.916295   3.975480  -1.965209  -0.202603   0.359347   2.206139   0.135248   0.358021   2.634193  -1.319969  -0.503036  -1.367511   0.094609  -0.465008   3.108019  -0.518061  11.059810  10.401489   5.972591  32.307452   0.142085  10.088907  -0.051258   4.418253   1.236968   0.729500   3.334160   0.916223 -13.518139  13.738965  -4.649531 -30.208622   0.127501  -9.055282   0.056245   4.786701  -2.832427  -1.234734  -1.695754  -1.554340  -5.274244  10.787411   0.012618  -0.011158  -7.119574  -3.855754   0.163415  -0.836965  -0.000710  -0.001077  -1.117009  -0.124889   3.893304   9.298621  -0.008526   0.000070  -6.661109   1.626844  -0.574042   0.940656  -0.006501   0.001108
 -2.376241   0.916072   3.975768  -2.004415  -0.265002   0.401976   2.308795   0.153511   0.390145   2.791798  -1.366768  -0.542043  -1.483575   0.028856  -0.522413   3.308691  -0.423927  11.585497  10.995514   6.621019  34.586102   0.133098  10.772230  -0.048124   4.714819   1.510091   1.591697   3.533858   0.908074 -14.113433  14.464754  -5.230816 -32.282537   0.119001  -9.699371   0.052509   5.088170  -3.236305  -2.122272  -1.965379  -1.726853  -5.342200  11.403934   0.009804  -0.010464  -7.396129  -4.084599   0.246676  -0.786279  -0.000601  -0.001081  -1.280943  -0.075247   3.897890   9.776813  -0.007011   0.000157  -6.899790   1.770532  -0.632156   1.114617  -0.005178   0.001129
 -2.376918   0.915946   3.975895  -2.007175  -0.249527   0.404562   2.466131   0.155496   0.366576   2.873036  -1.348949  -0.473471  -1.585489  -0.065298  -0.588822   3.489881  -0.457168  11.731288  11.547864   7.217021  36.308091   0.123180  11.593444  -0.046411   4.921928   1.876891   3.141921   3.718967   0.941185 -14.244158  14.980669  -5.793188 -33.997388   0.112487 -10.600695   0.049833   5.317392  -3.664227  -3.604532  -2.130585  -1.819849  -5.325876  11.757011   0.007651  -0.008693  -7.569026  -4.129361   0.284020  -0.599575  -0.000593  -0.001089  -1.479991  -0.019617   3.951692  10.207009  -0.005763   0.000526  -7.182307   1.924729  -0.572086   1.281799  -0.004294   0.001274
 -2.377620   0.915860   3.975896  -1.970644  -0.216079   0.404452   2.620230   0.168646   0.328474   2.933753  -1.324519  -0.407665  -1.678414  -0.151240  -0.647864   3.637396  -0.482053  11.586806  12.051191   7.763564  37.710997   0.109931  12.361826  -0.044104   5.111608   2.267547   4.405217   3.870853   0.959532 -14.090593  15.450007  -6.307209 -35.403196   0.102081 -11.448483   0.046353   5.520142  -4.153060  -4.807653  -2.300745  -1.915217  -5.300372  12.024117   0.005976  -0.007143  -7.692141  -4.188375   0.301184  -0.449965  -0.000545  -0.001044  -1.691597   0.031201   4.010565  10.561036  -0.004735   0.000779  -7.469051   2.067779  -0.508795   1.432383  -0.003575   0.001352
